# Blender v2.93.15 OBJ File: ''
# www.blender.org
mtllib vidrio.mtl
o pOSION.001
v 0.013679 0.210205 -0.098869
v 0.013933 0.190686 -0.098559
v -0.005095 0.190450 -0.098265
v -0.005359 0.209966 -0.098475
v -0.023713 0.190318 -0.094105
v -0.023868 0.209840 -0.094405
v -0.041173 0.190226 -0.086509
v -0.041328 0.209748 -0.086809
v -0.056757 0.190202 -0.075606
v -0.056913 0.209724 -0.075906
v -0.069907 0.190180 -0.061945
v -0.070171 0.209696 -0.062155
v -0.080186 0.190284 -0.045879
v -0.080341 0.209806 -0.046179
v -0.087114 0.190452 -0.028168
v -0.087269 0.209974 -0.028468
v -0.090301 0.210401 0.009250
v -0.090046 0.190882 0.009560
v -0.085996 0.191089 0.028073
v -0.086260 0.210605 0.027862
v -0.078421 0.191342 0.045533
v -0.078589 0.210961 0.045336
v -0.067541 0.191658 0.061115
v -0.067709 0.211277 0.060918
v -0.053812 0.192034 0.074371
v -0.054066 0.211553 0.074061
v -0.037755 0.192274 0.084537
v -0.038022 0.211889 0.084330
v -0.020072 0.192557 0.091550
v -0.020327 0.212076 0.091240
v -0.001307 0.192782 0.094849
v -0.001575 0.212398 0.094641
v 0.017631 0.193018 0.094445
v 0.017466 0.212537 0.094245
v 0.036240 0.193147 0.090385
v 0.036075 0.212666 0.090184
v 0.053700 0.193239 0.082789
v 0.053435 0.212755 0.082579
v 0.069284 0.193263 0.071886
v 0.069020 0.212779 0.071675
v 0.082433 0.193285 0.058224
v 0.082278 0.212807 0.057924
v 0.092713 0.193181 0.042159
v 0.092547 0.212700 0.041958
v 0.099641 0.193014 0.024448
v 0.099476 0.212532 0.024248
v 0.102947 0.192854 0.005770
v 0.102792 0.212376 0.005470
v 0.102672 0.192586 -0.013270
v 0.102404 0.212202 -0.013478
v 0.098532 0.192380 -0.031893
v 0.098367 0.211898 -0.032093
v 0.090951 0.192023 -0.049256
v 0.090683 0.211639 -0.049464
v 0.080071 0.191708 -0.064838
v 0.079813 0.211327 -0.065145
v 0.066339 0.191432 -0.078091
v 0.066173 0.210951 -0.078291
v 0.050291 0.191195 -0.088357
v 0.050126 0.210714 -0.088557
v 0.032599 0.190908 -0.095271
v 0.032434 0.210427 -0.095471
v 0.014102 0.171068 -0.098362
v -0.004940 0.170929 -0.097965
v -0.023445 0.170703 -0.093897
v -0.040905 0.170611 -0.086302
v -0.056489 0.170587 -0.075398
v -0.069741 0.170661 -0.061744
v -0.079921 0.170769 -0.045669
v -0.086946 0.170833 -0.027971
v -0.089878 0.171264 0.009758
v -0.085840 0.171567 0.028373
v -0.078156 0.171827 0.045744
v -0.067286 0.172139 0.061425
v -0.053643 0.172415 0.074568
v -0.037599 0.172752 0.084837
v -0.019907 0.173039 0.091751
v -0.001142 0.173264 0.095049
v 0.017886 0.173499 0.094755
v 0.036395 0.173625 0.090685
v 0.053865 0.173720 0.082989
v 0.069439 0.173741 0.072186
v 0.082701 0.173670 0.058432
v 0.092967 0.173662 0.042469
v 0.099896 0.173495 0.024758
v 0.103211 0.173338 0.005981
v 0.102837 0.173068 -0.013070
v 0.098790 0.172761 -0.031586
v 0.091116 0.172505 -0.049056
v 0.080236 0.172189 -0.064638
v 0.066593 0.171913 -0.077781
v 0.050549 0.171576 -0.088050
v 0.032867 0.171293 -0.095063
v 0.014366 0.151552 -0.098151
v -0.004672 0.151313 -0.097757
v -0.023280 0.151184 -0.093697
v -0.040740 0.151092 -0.086101
v -0.056324 0.151068 -0.075198
v -0.069487 0.151143 -0.061434
v -0.079753 0.151150 -0.045471
v -0.086681 0.151318 -0.027760
v -0.089712 0.151745 0.009958
v -0.085576 0.152052 0.028583
v -0.078001 0.152305 0.046044
v -0.067121 0.152620 0.061625
v -0.053379 0.152899 0.074779
v -0.037335 0.153236 0.085048
v -0.019639 0.153423 0.091958
v -0.000987 0.153742 0.095349
v 0.018055 0.153881 0.094953
v 0.036663 0.154010 0.090892
v 0.054123 0.154102 0.083297
v 0.069704 0.154225 0.072396
v 0.082866 0.154151 0.058632
v 0.093136 0.154044 0.042666
v 0.100061 0.153976 0.024958
v 0.103380 0.153719 0.006178
v 0.102993 0.153546 -0.012770
v 0.098955 0.153242 -0.031385
v 0.091381 0.152989 -0.048845
v 0.080500 0.152673 -0.064427
v 0.066758 0.152394 -0.077581
v 0.050714 0.152057 -0.087850
v 0.033022 0.151771 -0.094763
v 0.014690 0.112411 -0.097654
v 0.014955 0.092895 -0.097443
v -0.004083 0.092656 -0.097049
v -0.004252 0.112275 -0.097247
v -0.022692 0.092527 -0.092989
v -0.022860 0.112146 -0.093187
v -0.040052 0.092439 -0.085383
v -0.040320 0.112054 -0.085591
v -0.055736 0.092412 -0.074490
v -0.055901 0.111930 -0.074691
v -0.068899 0.092486 -0.060726
v -0.069054 0.112008 -0.061026
v -0.079165 0.092493 -0.044763
v -0.079333 0.112112 -0.044961
v -0.086093 0.092661 -0.027052
v -0.086258 0.112180 -0.027253
v -0.089289 0.112607 0.010466
v -0.089025 0.093091 0.010676
v -0.084988 0.093395 0.029291
v -0.085153 0.112914 0.029091
v -0.077314 0.093651 0.046761
v -0.077568 0.113170 0.046452
v -0.066533 0.093964 0.062333
v -0.066688 0.113486 0.062034
v -0.052791 0.094243 0.075487
v -0.052956 0.113761 0.075286
v -0.036747 0.094580 0.085755
v -0.037011 0.114095 0.085545
v -0.019054 0.094866 0.092669
v -0.019219 0.114385 0.092469
v -0.000299 0.095088 0.096067
v -0.000554 0.114607 0.095757
v 0.018742 0.095227 0.095671
v 0.018474 0.114843 0.095463
v 0.037248 0.095453 0.091603
v 0.037093 0.114975 0.091303
v 0.054708 0.095545 0.084007
v 0.054453 0.115064 0.083697
v 0.070292 0.095569 0.073104
v 0.070127 0.115088 0.072904
v 0.083455 0.095495 0.059340
v 0.083289 0.115013 0.059140
v 0.093724 0.095387 0.043374
v 0.093565 0.115009 0.043077
v 0.100649 0.095319 0.025666
v 0.100494 0.114841 0.025366
v 0.104067 0.095066 0.006896
v 0.103799 0.114682 0.006689
v 0.103680 0.094892 -0.012052
v 0.103426 0.114411 -0.012362
v 0.099643 0.094589 -0.030667
v 0.099378 0.114104 -0.030878
v 0.091969 0.094333 -0.048138
v 0.091804 0.113851 -0.048338
v 0.081089 0.094017 -0.063720
v 0.080923 0.113536 -0.063920
v 0.067347 0.093738 -0.076873
v 0.067191 0.113260 -0.077173
v 0.051402 0.093404 -0.087132
v 0.051138 0.112920 -0.087342
v 0.033709 0.093117 -0.094045
v 0.033452 0.112736 -0.094352
v 0.015110 0.073374 -0.097143
v -0.003819 0.073141 -0.096839
v -0.022427 0.073012 -0.092779
v -0.039897 0.072917 -0.085083
v -0.055472 0.072896 -0.074280
v -0.068631 0.072870 -0.060519
v -0.078900 0.072978 -0.044553
v -0.085828 0.073146 -0.026842
v -0.088870 0.073570 0.010976
v -0.084720 0.073779 0.029499
v -0.077148 0.074132 0.046962
v -0.066268 0.074448 0.062544
v -0.052526 0.074727 0.075697
v -0.036578 0.074961 0.085953
v -0.018786 0.075251 0.092877
v -0.000131 0.075470 0.096265
v 0.018907 0.075709 0.095871
v 0.037516 0.075838 0.091811
v 0.054876 0.075926 0.084205
v 0.070560 0.075953 0.073312
v 0.083709 0.075976 0.059650
v 0.093988 0.075872 0.043585
v 0.100917 0.075704 0.025874
v 0.104223 0.075544 0.007196
v 0.103845 0.075373 -0.011852
v 0.099808 0.075070 -0.030467
v 0.092224 0.074814 -0.047828
v 0.081353 0.074501 -0.063509
v 0.067614 0.074122 -0.076665
v 0.051567 0.073885 -0.086931
v 0.033875 0.073598 -0.093845
v 0.015374 0.053858 -0.096933
v -0.003664 0.053619 -0.096539
v -0.022272 0.053490 -0.092479
v -0.039632 0.053401 -0.084873
v -0.055316 0.053374 -0.073980
v -0.068466 0.053352 -0.060318
v -0.078745 0.053456 -0.044253
v -0.085673 0.053624 -0.026542
v -0.088602 0.053954 0.011184
v -0.084565 0.054257 0.029799
v -0.076980 0.054514 0.047159
v -0.066100 0.054829 0.062741
v -0.052371 0.055205 0.075997
v -0.036324 0.055442 0.086263
v -0.018631 0.055729 0.093176
v 0.000134 0.055954 0.096475
v 0.019062 0.056187 0.096171
v 0.037681 0.056319 0.092011
v 0.055141 0.056411 0.084415
v 0.070725 0.056435 0.073512
v 0.083874 0.056457 0.059850
v 0.094154 0.056353 0.043785
v 0.101082 0.056185 0.026074
v 0.104487 0.056028 0.007406
v 0.104113 0.055758 -0.011644
v 0.099963 0.055548 -0.030167
v 0.092392 0.055195 -0.047630
v 0.081512 0.054879 -0.063212
v 0.067780 0.054604 -0.076465
v 0.051822 0.054366 -0.086621
v 0.034040 0.054080 -0.093644
v 0.015543 0.034239 -0.096735
v -0.003499 0.034100 -0.096339
v -0.022004 0.033874 -0.092271
v -0.039464 0.033782 -0.084675
v -0.055048 0.033758 -0.073772
v -0.068201 0.033836 -0.060108
v -0.078480 0.033940 -0.044042
v -0.085405 0.034008 -0.026334
v -0.088437 0.034435 0.011384
v -0.084399 0.034739 0.029999
v -0.076715 0.034998 0.047370
v -0.065845 0.035310 0.063051
v -0.052103 0.035589 0.076204
v -0.036158 0.035923 0.086463
v -0.018466 0.036210 0.093377
v 0.000289 0.036432 0.096775
v 0.019327 0.036671 0.096381
v 0.037936 0.036800 0.092321
v 0.055306 0.036892 0.084616
v 0.070980 0.036916 0.073822
v 0.084142 0.036841 0.060058
v 0.094408 0.036834 0.044095
v 0.101337 0.036666 0.026384
v 0.104652 0.036509 0.007607
v 0.104268 0.036236 -0.011344
v 0.100231 0.035932 -0.029959
v 0.092557 0.035676 -0.047430
v 0.081776 0.035364 -0.063002
v 0.068034 0.035085 -0.076155
v 0.051990 0.034748 -0.086424
v 0.034298 0.034461 -0.093337
v -0.018043 -0.002928 0.093884
v 0.000722 -0.002703 0.097183
v 0.019760 -0.002464 0.096789
v 0.038369 -0.002335 0.092729
v 0.055729 -0.002246 0.085123
v -0.018198 0.016594 0.093585
v 0.000554 0.016916 0.096986
v 0.019496 0.017052 0.096579
v 0.038104 0.017181 0.092518
v 0.055564 0.017273 0.084923
v 0.015928 0.014790 -0.098723
v 0.016039 0.007181 -0.098551
v -0.003497 0.006927 -0.098208
v -0.003515 0.014436 -0.098273
v -0.022423 0.006783 -0.093979
v -0.022531 0.014292 -0.094153
v -0.040629 0.006655 -0.085957
v -0.040750 0.014260 -0.086029
v 0.035561 0.014932 -0.095038
v 0.035682 0.007327 -0.094966
v 0.015870 0.023497 -0.098754
v -0.003666 0.023243 -0.098410
v -0.022589 0.022999 -0.094184
v -0.040798 0.022970 -0.086159
v 0.035513 0.023643 -0.095168
vn -0.0179 -0.0136 -0.9997
vn -0.2163 -0.0151 -0.9762
vn -0.3988 -0.0173 -0.9169
vn -0.5731 -0.0171 -0.8193
vn -0.7201 -0.0168 -0.6937
vn -0.8429 -0.0161 -0.5378
vn -0.9312 -0.0130 -0.3642
vn -0.9770 -0.0102 0.2130
vn -0.9165 -0.0060 0.4001
vn -0.8199 -0.0013 0.5725
vn -0.6942 0.0018 0.7198
vn -0.5371 0.0040 0.8435
vn -0.3663 0.0074 0.9305
vn -0.1759 0.0107 0.9843
vn 0.0210 0.0107 0.9997
vn 0.2131 0.0118 0.9770
vn 0.4000 0.0140 0.9164
vn 0.5732 0.0166 0.8193
vn 0.7201 0.0168 0.6937
vn 0.8417 0.0138 0.5398
vn 0.9313 0.0116 0.3642
vn 0.9847 0.0103 0.1740
vn 0.9998 0.0106 -0.0175
vn 0.9767 0.0086 -0.2146
vn 0.9154 0.0059 -0.4024
vn 0.8208 0.0035 -0.5711
vn 0.6942 -0.0018 -0.7198
vn 0.5389 -0.0041 -0.8423
vn 0.3640 -0.0065 -0.9314
vn 0.1760 -0.0110 -0.9843
vn -0.0180 -0.0129 -0.9998
vn -0.2162 -0.0150 -0.9762
vn -0.3988 -0.0152 -0.9169
vn -0.5732 -0.0165 -0.8193
vn -0.7190 -0.0152 -0.6949
vn -0.8435 -0.0149 -0.5369
vn -0.9303 -0.0141 -0.3665
vn -0.9771 -0.0054 0.2129
vn -0.9159 -0.0046 0.4013
vn -0.8208 -0.0033 0.5711
vn -0.5371 0.0063 0.8435
vn -0.3664 0.0089 0.9304
vn -0.1732 0.0086 0.9848
vn 0.0182 0.0133 0.9997
vn 0.2138 0.0175 0.9767
vn 0.4009 0.0150 0.9160
vn 0.5715 0.0152 0.8204
vn 0.8416 0.0184 0.5398
vn 0.9312 0.0179 0.3641
vn 0.9846 0.0154 0.1739
vn 0.9998 0.0108 -0.0172
vn 0.9765 0.0078 -0.2154
vn 0.9160 0.0047 -0.4012
vn 0.8199 0.0011 -0.5725
vn 0.6941 -0.0019 -0.7198
vn 0.5391 -0.0062 -0.8422
vn 0.3664 -0.0073 -0.9304
vn 0.1734 -0.0082 -0.9848
vn -0.0206 -0.0110 -0.9997
vn -0.2138 -0.0125 -0.9768
vn -0.3988 -0.0128 -0.9169
vn -0.5732 -0.0133 -0.8193
vn -0.9767 -0.0085 0.2145
vn -0.8209 0.0006 0.5711
vn -0.6926 -0.0000 0.7213
vn -0.5391 0.0018 0.8422
vn -0.3639 0.0050 0.9314
vn -0.1761 0.0109 0.9843
vn 0.0180 0.0129 0.9998
vn 0.2139 0.0125 0.9768
vn 0.4009 0.0174 0.9160
vn 0.5715 0.0185 0.8204
vn 0.7212 0.0152 0.6925
vn 0.8410 0.0127 0.5409
vn 0.9847 0.0102 0.1738
vn 0.9998 0.0080 -0.0201
vn 0.9771 0.0053 -0.2128
vn 0.9164 0.0059 -0.4001
vn 0.8198 0.0049 -0.5726
vn 0.6926 0.0000 -0.7213
vn 0.5391 -0.0041 -0.8422
vn 0.3664 -0.0089 -0.9304
vn -0.0210 -0.0107 -0.9997
vn -0.2131 -0.0117 -0.9770
vn -0.4000 -0.0139 -0.9164
vn -0.5717 -0.0149 -0.8203
vn -0.7216 -0.0148 -0.6922
vn -0.8417 -0.0138 -0.5398
vn -0.9313 -0.0116 -0.3642
vn -0.8210 0.0003 0.5709
vn -0.6930 0.0036 0.7209
vn -0.5401 0.0029 0.8416
vn -0.3634 0.0058 0.9316
vn -0.1760 0.0110 0.9843
vn 0.0180 0.0135 0.9997
vn 0.2162 0.0150 0.9762
vn 0.4000 0.0185 0.9163
vn 0.5701 0.0169 0.8214
vn 0.7227 0.0132 0.6910
vn 0.9312 0.0130 0.3642
vn 0.9842 0.0129 0.1766
vn 0.9997 0.0131 -0.0202
vn 0.9770 0.0102 -0.2129
vn 0.6930 -0.0036 -0.7209
vn 0.5382 -0.0052 -0.8428
vn 0.3663 -0.0074 -0.9305
vn 0.1759 -0.0107 -0.9843
vn -0.0182 -0.0133 -0.9997
vn -0.2131 -0.0134 -0.9769
vn -0.4021 -0.0163 -0.9155
vn -0.5701 -0.0169 -0.8214
vn -0.7226 -0.0172 -0.6910
vn -0.8410 -0.0172 -0.5408
vn -0.9312 -0.0166 -0.3641
vn -0.9765 -0.0078 0.2154
vn -0.8210 -0.0030 0.5709
vn -0.6914 -0.0016 0.7224
vn -0.5400 0.0028 0.8416
vn -0.3634 0.0056 0.9316
vn -0.1786 0.0082 0.9839
vn 0.0207 0.0103 0.9997
vn 0.2138 0.0125 0.9768
vn 0.4000 0.0139 0.9164
vn 0.5718 0.0148 0.8203
vn 0.7215 0.0188 0.6922
vn 0.9312 0.0166 0.3641
vn 0.9998 0.0079 -0.0202
vn 0.9772 0.0061 -0.2120
vn 0.9159 0.0046 -0.4013
vn 0.8208 0.0033 -0.5711
vn 0.6915 0.0017 -0.7224
vn 0.5400 -0.0028 -0.8416
vn 0.1758 -0.0112 -0.9844
vn -0.2130 -0.0167 -0.9769
vn -0.7215 -0.0148 -0.6922
vn -0.9169 -0.0025 0.3991
vn -0.6931 0.0034 0.7209
vn -0.5400 0.0075 0.8417
vn -0.3634 0.0107 0.9316
vn 0.2155 0.0143 0.9764
vn 0.4000 0.0141 0.9164
vn 0.5718 0.0149 0.8203
vn 0.7204 0.0132 0.6934
vn 0.8423 0.0127 0.5389
vn 0.9842 0.0127 0.1767
vn 0.9997 0.0134 -0.0199
vn 0.9169 0.0025 -0.3991
vn 0.8209 -0.0004 -0.5711
vn 0.6931 -0.0034 -0.7209
vn 0.5380 -0.0052 -0.8429
vn 0.3658 -0.0082 -0.9307
vn 0.1734 -0.0085 -0.9848
vn -0.0207 -0.0103 -0.9997
vn -0.2138 -0.0126 -0.9768
vn -0.5718 -0.0148 -0.8203
vn -0.7204 -0.0172 -0.6934
vn -0.8423 -0.0172 -0.5388
vn -0.9772 -0.0061 0.2120
vn -0.9154 -0.0058 0.4025
vn -0.6930 0.0003 0.7209
vn -0.3640 0.0065 0.9314
vn -0.1758 0.0112 0.9844
vn 0.2155 0.0159 0.9764
vn 0.4021 0.0163 0.9155
vn 0.9842 0.0129 0.1765
vn 0.9998 0.0079 -0.0201
vn 0.9165 0.0060 -0.4001
vn 0.8210 0.0030 -0.5709
vn 0.6930 -0.0004 -0.7210
vn 0.5381 -0.0051 -0.8429
vn 0.3658 -0.0080 -0.9307
vn 0.1760 -0.0107 -0.9843
vn 0.1785 -0.0081 -0.9839
vn -0.4021 -0.0161 -0.9155
vn 0.1759 -0.0111 -0.9843
vn -0.4000 -0.0140 -0.9164
vn -0.0201 -0.0158 -0.9997
vn -0.2147 -0.0174 -0.9765
vn -0.4051 -0.0210 -0.9140
vn 0.1821 -0.0130 -0.9832
vn -0.0202 -0.0098 -0.9997
vn -0.2147 -0.0119 -0.9766
vn -0.4053 -0.0109 -0.9141
vn 0.1821 -0.0080 -0.9833
usemtl TRASPARENTE
s off
f 1//1 2//1 3//1 4//1
f 4//2 3//2 5//2 6//2
f 6//3 5//3 7//3 8//3
f 8//4 7//4 9//4 10//4
f 10//5 9//5 11//5 12//5
f 12//6 11//6 13//6 14//6
f 14//7 13//7 15//7 16//7
f 17//8 18//8 19//8 20//8
f 20//9 19//9 21//9 22//9
f 22//10 21//10 23//10 24//10
f 24//11 23//11 25//11 26//11
f 26//12 25//12 27//12 28//12
f 28//13 27//13 29//13 30//13
f 30//14 29//14 31//14 32//14
f 32//15 31//15 33//15 34//15
f 34//16 33//16 35//16 36//16
f 36//17 35//17 37//17 38//17
f 38//18 37//18 39//18 40//18
f 40//19 39//19 41//19 42//19
f 42//20 41//20 43//20 44//20
f 44//21 43//21 45//21 46//21
f 46//22 45//22 47//22 48//22
f 48//23 47//23 49//23 50//23
f 50//24 49//24 51//24 52//24
f 52//25 51//25 53//25 54//25
f 54//26 53//26 55//26 56//26
f 56//27 55//27 57//27 58//27
f 58//28 57//28 59//28 60//28
f 60//29 59//29 61//29 62//29
f 62//30 61//30 2//30 1//30
f 2//31 63//31 64//31 3//31
f 3//32 64//32 65//32 5//32
f 5//33 65//33 66//33 7//33
f 7//34 66//34 67//34 9//34
f 9//35 67//35 68//35 11//35
f 11//36 68//36 69//36 13//36
f 13//37 69//37 70//37 15//37
f 18//38 71//38 72//38 19//38
f 19//39 72//39 73//39 21//39
f 21//40 73//40 74//40 23//40
f 23//11 74//11 75//11 25//11
f 25//41 75//41 76//41 27//41
f 27//42 76//42 77//42 29//42
f 29//43 77//43 78//43 31//43
f 31//44 78//44 79//44 33//44
f 33//45 79//45 80//45 35//45
f 35//46 80//46 81//46 37//46
f 37//47 81//47 82//47 39//47
f 39//19 82//19 83//19 41//19
f 41//48 83//48 84//48 43//48
f 43//49 84//49 85//49 45//49
f 45//50 85//50 86//50 47//50
f 47//51 86//51 87//51 49//51
f 49//52 87//52 88//52 51//52
f 51//53 88//53 89//53 53//53
f 53//54 89//54 90//54 55//54
f 55//55 90//55 91//55 57//55
f 57//56 91//56 92//56 59//56
f 59//57 92//57 93//57 61//57
f 61//58 93//58 63//58 2//58
f 63//59 94//59 95//59 64//59
f 64//60 95//60 96//60 65//60
f 65//61 96//61 97//61 66//61
f 66//62 97//62 98//62 67//62
f 67//5 98//5 99//5 68//5
f 68//6 99//6 100//6 69//6
f 69//37 100//37 101//37 70//37
f 71//63 102//63 103//63 72//63
f 72//39 103//39 104//39 73//39
f 73//64 104//64 105//64 74//64
f 74//65 105//65 106//65 75//65
f 75//66 106//66 107//66 76//66
f 76//67 107//67 108//67 77//67
f 77//68 108//68 109//68 78//68
f 78//69 109//69 110//69 79//69
f 79//70 110//70 111//70 80//70
f 80//71 111//71 112//71 81//71
f 81//72 112//72 113//72 82//72
f 82//73 113//73 114//73 83//73
f 83//74 114//74 115//74 84//74
f 84//21 115//21 116//21 85//21
f 85//75 116//75 117//75 86//75
f 86//76 117//76 118//76 87//76
f 87//77 118//77 119//77 88//77
f 88//78 119//78 120//78 89//78
f 89//79 120//79 121//79 90//79
f 90//80 121//80 122//80 91//80
f 91//81 122//81 123//81 92//81
f 92//82 123//82 124//82 93//82
f 93//30 124//30 94//30 63//30
f 125//83 126//83 127//83 128//83
f 128//84 127//84 129//84 130//84
f 130//85 129//85 131//85 132//85
f 132//86 131//86 133//86 134//86
f 134//87 133//87 135//87 136//87
f 136//88 135//88 137//88 138//88
f 138//89 137//89 139//89 140//89
f 141//63 142//63 143//63 144//63
f 144//39 143//39 145//39 146//39
f 146//90 145//90 147//90 148//90
f 148//91 147//91 149//91 150//91
f 150//92 149//92 151//92 152//92
f 152//93 151//93 153//93 154//93
f 154//94 153//94 155//94 156//94
f 156//95 155//95 157//95 158//95
f 158//96 157//96 159//96 160//96
f 160//97 159//97 161//97 162//97
f 162//98 161//98 163//98 164//98
f 164//99 163//99 165//99 166//99
f 166//20 165//20 167//20 168//20
f 168//100 167//100 169//100 170//100
f 170//101 169//101 171//101 172//101
f 172//102 171//102 173//102 174//102
f 174//103 173//103 175//103 176//103
f 176//78 175//78 177//78 178//78
f 178//54 177//54 179//54 180//54
f 180//104 179//104 181//104 182//104
f 182//105 181//105 183//105 184//105
f 184//106 183//106 185//106 186//106
f 186//107 185//107 126//107 125//107
f 126//108 187//108 188//108 127//108
f 127//109 188//109 189//109 129//109
f 129//110 189//110 190//110 131//110
f 131//111 190//111 191//111 133//111
f 133//112 191//112 192//112 135//112
f 135//113 192//113 193//113 137//113
f 137//114 193//114 194//114 139//114
f 142//115 195//115 196//115 143//115
f 143//9 196//9 197//9 145//9
f 145//116 197//116 198//116 147//116
f 147//117 198//117 199//117 149//117
f 149//118 199//118 200//118 151//118
f 151//119 200//119 201//119 153//119
f 153//120 201//120 202//120 155//120
f 155//121 202//121 203//121 157//121
f 157//122 203//122 204//122 159//122
f 159//123 204//123 205//123 161//123
f 161//124 205//124 206//124 163//124
f 163//125 206//125 207//125 165//125
f 165//48 207//48 208//48 167//48
f 167//126 208//126 209//126 169//126
f 169//101 209//101 210//101 171//101
f 171//127 210//127 211//127 173//127
f 173//128 211//128 212//128 175//128
f 175//129 212//129 213//129 177//129
f 177//130 213//130 214//130 179//130
f 179//131 214//131 215//131 181//131
f 181//132 215//132 216//132 183//132
f 183//29 216//29 217//29 185//29
f 185//133 217//133 187//133 126//133
f 187//108 218//108 219//108 188//108
f 188//134 219//134 220//134 189//134
f 189//110 220//110 221//110 190//110
f 190//111 221//111 222//111 191//111
f 191//135 222//135 223//135 192//135
f 192//88 223//88 224//88 193//88
f 193//7 224//7 225//7 194//7
f 195//115 226//115 227//115 196//115
f 196//136 227//136 228//136 197//136
f 197//10 228//10 229//10 198//10
f 198//137 229//137 230//137 199//137
f 199//138 230//138 231//138 200//138
f 200//139 231//139 232//139 201//139
f 201//94 232//94 233//94 202//94
f 202//44 233//44 234//44 203//44
f 203//140 234//140 235//140 204//140
f 204//141 235//141 236//141 205//141
f 205//142 236//142 237//142 206//142
f 206//143 237//143 238//143 207//143
f 207//144 238//144 239//144 208//144
f 208//21 239//21 240//21 209//21
f 209//145 240//145 241//145 210//145
f 210//146 241//146 242//146 211//146
f 211//52 242//52 243//52 212//52
f 212//147 243//147 244//147 213//147
f 213//148 244//148 245//148 214//148
f 214//149 245//149 246//149 215//149
f 215//150 246//150 247//150 216//150
f 216//151 247//151 248//151 217//151
f 217//152 248//152 218//152 187//152
f 218//153 249//153 250//153 219//153
f 219//154 250//154 251//154 220//154
f 220//85 251//85 252//85 221//85
f 221//155 252//155 253//155 222//155
f 222//156 253//156 254//156 223//156
f 223//157 254//157 255//157 224//157
f 224//114 255//114 256//114 225//114
f 226//158 257//158 258//158 227//158
f 227//159 258//159 259//159 228//159
f 228//40 259//40 260//40 229//40
f 229//160 260//160 261//160 230//160
f 230//118 261//118 262//118 231//118
f 231//161 262//161 263//161 232//161
f 232//162 263//162 264//162 233//162
f 233//44 264//44 265//44 234//44
f 234//163 265//163 266//163 235//163
f 235//164 266//164 267//164 236//164
f 236//98 267//98 268//98 237//98
f 237//125 268//125 269//125 238//125
f 238//48 269//48 270//48 239//48
f 239//49 270//49 271//49 240//49
f 240//165 271//165 272//165 241//165
f 241//166 272//166 273//166 242//166
f 242//52 273//52 274//52 243//52
f 243//167 274//167 275//167 244//167
f 244//168 275//168 276//168 245//168
f 245//169 276//169 277//169 246//169
f 246//170 277//170 278//170 247//170
f 247//171 278//171 279//171 248//171
f 248//172 279//172 249//172 218//172
f 263//173 264//173 286//173 285//173
f 264//83 265//83 287//83 286//83
f 265//84 266//84 288//84 287//84
f 266//174 267//174 289//174 288//174
f 285//175 286//175 281//175 280//175
f 286//83 287//83 282//83 281//83
f 287//109 288//109 283//109 282//109
f 288//176 289//176 284//176 283//176
f 290//177 291//177 292//177 293//177
f 293//178 292//178 294//178 295//178
f 295//179 294//179 296//179 297//179
f 298//180 299//180 291//180 290//180
f 300//181 290//181 293//181 301//181
f 301//182 293//182 295//182 302//182
f 302//183 295//183 297//183 303//183
f 304//184 298//184 290//184 300//184
